<svg xmlns="http://www.w3.org/2000/svg" version="1" viewBox="0 0 450 720"><path fill="#a90000" d="M194.4 8.7c-35 79-10.7 176.4 51.5 234.6 31.2 25.5 63.8 51 84.6 86.6 42.6 68 56 157.4 24.8 232.5-22.5 56-80.7 95.6-141.6 92.3-52 1.6-108-22.5-130.4-71.8C63 541.4 63 490.3 79.8 447.4c23.6-48.5 91.5-75.6 139-45.4 31 19.4 38.3 72 6 93.5-2.3-7.2 13-33.8-9.7-41.3-24.4-20.8-65.3-12.8-79.5 16.3-21.8 39-13.5 98.6 27.8 121 57.2 17 126-8 152.7-63 32.5-59.2 10.5-135.6-38.6-178.4-49.2-48.8-131-44.7-187.7-11.8C35 368 2.3 430 4.4 491.7c-8 71 15.4 151.5 78.4 191.6 51.5 34.3 117.6 38.8 177 28.2 77.2-17.7 147.5-73.2 171.7-150 33.2-97 1-205.3-61.5-283-24.8-33.3-58-58-89.7-84.3-48.2-41.7-82.6-104-78-169 0-5 1.2-24.4-8-16.5z"/></svg>