<svg xmlns="http://www.w3.org/2000/svg" version="1" viewBox="0 0 150 240"><path fill="#a90000" d="M63 8.2c-3.4 9.6-4 26-1 36.7 4.3 17.4 12 29 27.7 42C102 97.2 109 105.8 115 118.5c6.6 13.5 9 24.6 9 39.4 0 20-5 34-16.7 45.8-9.5 9.6-21 14.2-35.8 14.2-24.5 0-42-12.6-47-34-2.8-12-1.5-27 3-36 8.4-16.5 32.7-24 46.3-14 9.6 7 11.3 22.2 3.3 29.4-2.6 2.5-3.7 1.4-1.6-1.6 1-1.2 1.6-3 1.6-4 0-2.6-4-7-8.4-9C58 144 47 150 43 162.5c-2 6.2-.8 18 2.3 24.3 5 10 12.8 13 28 11.2 13.5-1.8 27.2-11 32.5-22 9.3-19.5 5.5-40-10.7-57.2-15.6-16.7-39.7-19.4-63.3-7-12.4 6.4-21.3 17-26.4 31-4.5 12.4-5 37.8-.7 52 6 21.3 23.4 37.2 45.4 41.8 11.3 2.4 29.7 2 39.5-.5 27.6-7.5 47.6-26 55.3-51.2 12-38.4-5.3-84.5-42.4-113.4C86.4 59 76 45.4 71 31c-1.7-4.7-2.5-9.6-2.8-17.8-.5-13.2-1.8-14.5-5.2-5zm6.3 26c5 14 15.4 27 31 39 49 38.5 60.5 103.6 24.4 139.8-9 9-20.7 15.8-34.7 20-9.6 3-29.6 3.3-40.5.6-22-5.4-37.3-20.4-43.2-42.6-2.3-8.6-2.2-32.5 0-42.4 7.7-32.2 45.7-50.8 75.4-37 6.6 3 17 14 21 22.3 11 21.7 3.7 47.3-16 57-12.4 6-28.7 6.3-34.8.4-4.5-4.2-7.2-11.7-7.2-19.6 0-8.7 3.7-17 9.2-20 6.2-3.4 15.8-1.2 19.4 4.4.7 1.2.5 2.6-1 5-1.5 3-1.6 4-.5 5.2 1.7 2 3.2 2 6.5-.6 9.6-7.5 8-25.8-2.8-33.8-5.5-4-10.7-5.3-19.7-4.8-13.4.8-25.5 8.6-31.4 20.2-4 8-5.5 22.5-3.3 33.7 4.7 24.2 20.2 37.6 45.7 39.6 29 2.2 52.4-16 58.6-45.6 2-10 1.4-31.7-1.4-41-6.6-22.3-15.4-34.8-37.6-53.4-17.7-15-27-40.2-23-63l.7-5 1.2 7.4c.7 4 2.4 10.5 3.8 14.2z"/></svg>