<svg version="1" xmlns="http://www.w3.org/2000/svg" viewBox="0 0 86 38"><g fill="#a90000"><path d="M34 19c0 12 .4 19 1 19s1-1 1-2c0-2.3 1-2.6 2.8-.8.7.7 4 1.2 7.2 1.3 5.2 0 6.3-.4 8.7-2.7 2-2 2.4-3 1.7-3.8-.8-.8-1.6-.4-2.7 1.3-3.2 5-13.2 4-17-1.4-2.4-4-2.2-10 .3-14 3-4 8-5 12.2-4 4.3 2 6.6 4.4 7.4 8.5l.7 3H50c-6.4-.3-7.5 0-7.8 1.4-1 5 7.7 6.7 12 2l2.5-2 2.3 4c5 6.6 7 7.4 17 6.4l10-.7V20c0-8-.3-14.8-.3-15.2C85.7 3 81 .4 78 .4 74 .7 70 5 72 7c2 2.3 1 3.7-2.3 3-3-.3-4 0-7.5 3.5l-4.2 4-2.2-2.5c-4.8-5-12.2-6.7-16.2-3.7-1 .8-2.2 1.5-2.5 1.5V6.3C37 1 37 0 36 0c-1.8 0-2 2.3-2 19zM82.5 6.4c.2 1 .3 7.2.2 13.3-.2 8.5 0 11.4 1 11.8 3 1-.3 2.5-5.5 2.3-3 0-7 0-8.4.6-2.4.7-3.3.3-6.4-2.8-3.4-3.4-3.6-4-3.2-8.7.4-4 1.3-6 3-8 2-3 3-3 7-2C76 14 77 13 75 8c-1.6-3.8-.5-5 4-4.2 2 .3 3.2 1 3.5 2.6zM47 28c0 .5-.2 1-.4 1-.3 0-.8-.5-1-1-.4-.6-.2-1 .3-1s1 .4 1 1zm6-.6c0 .2-1 .6-2.5.8-1.4.3-2.5 0-2.5-.3 0-1 1-1 2.5-1H53z"/><path d="M69.2 17.2c-1.6 1.6-1.6 11 0 12.6 1.7 1.7 4.6 1.5 5.6-.6 3.3-6.3-1.4-16.2-5.6-12zm3.8 7c0 2.6-.4 3.8-1.4 3.8-1 0-1.4-1.2-1.4-3.8 0-4.2.5-5.5 2-4.7.4.4.8 2.4.8 4.6zM2.4 4c-1 1-.3 2 1.4 2 1.5 0 1.7 1.2 1.5 12.2 0 6.8-.2 12.6-.3 13 0 .5-.7.8-1.6.8-.8 0-1.2.4-1 1 .4.5 3.6 1 7.2 1 6 0 8-1 5-2.7-1.3-.7-2-4.2-1.7-8.6 0-1 0-1.7 2-1.7 1 0 3 2 5 6.2 3 6.3 3 6.3 8 6.6 5 .3 6-.5 2-2.6-1-.7-3-3.3-4-5.8-1.8-2.8-3-4.8-4-5-2-.6-2-.8 1-2 4-1.8 6-5.4 4-9.4-1-1-2-3-3-3C23 5 3 3.5 2 4zm8.3 7.7v7.8C10.7 30 10.5 32 9.4 32 8.4 32 8 29 8 19.7c0-6.8.3-12.7.7-13 1.5-1.5 2-.4 2 5zm8.5-4c3.6 3.3 1.4 9.6-3.7 10.5-1.6.2-2-.4-2.6-4-1-2.8-1-5 0-6.2 1-2.4 3-2.5 5-.3zm5.6.5c2 2 1.5 6.6-.8 7.8-1.8 1-1.8.8-1-2 .8-2 .8-3.5 0-5-1.2-2.2 0-2.7 1.8-.8zm1 20c1 2 1.7 3.8 1.3 3.8-1 0-3-2-5-7l-3-5.5 3 2.5c2 1 4 4 5 6zM43 17.6c-1.3 1.4-1 2 1 3.5 2.6 3 4 3 5.4 0 2-3-4-6-6.5-3z"/></g></svg>